<svg width="903" height="903" viewBox="0 0 903 903" fill="none" xmlns="http://www.w3.org/2000/svg">
<rect width="903" height="903" fill="white"/>
<path d="M289.635 507.117H221.031V637H152.184V286.902H306.48C386.559 286.902 426.598 323.768 426.598 397.498C426.598 450.883 404.788 484.738 361.168 499.061L433.189 637H355.553L289.635 507.117ZM221.031 446.082H305.016C339.358 446.082 356.529 430.213 356.529 398.475C356.529 365.109 338.219 348.426 301.598 348.426H221.031V446.082Z" fill="black"/>
<path d="M626.549 507.117H557.945V637H489.098V286.902H643.395C723.473 286.902 763.512 323.768 763.512 397.498C763.512 450.883 741.702 484.738 698.082 499.061L770.104 637H692.467L626.549 507.117ZM557.945 446.082H641.93C676.272 446.082 693.443 430.213 693.443 398.475C693.443 365.109 675.133 348.426 638.512 348.426H557.945V446.082Z" fill="#CB3A31"/>
</svg>
